%TF.GenerationSoftware,KiCad,Pcbnew,(5.1.12)-1*%
%TF.CreationDate,2022-08-13T13:45:03+02:00*%
%TF.ProjectId,petpuller,70657470-756c-46c6-9572-2e6b69636164,rev?*%
%TF.SameCoordinates,Original*%
%TF.FileFunction,Paste,Bot*%
%TF.FilePolarity,Positive*%
%FSLAX46Y46*%
G04 Gerber Fmt 4.6, Leading zero omitted, Abs format (unit mm)*
G04 Created by KiCad (PCBNEW (5.1.12)-1) date 2022-08-13 13:45:03*
%MOMM*%
%LPD*%
G01*
G04 APERTURE LIST*
G04 APERTURE END LIST*
%TO.C,R1*%
G36*
G01*
X179740000Y-52520001D02*
X179740000Y-51619999D01*
G75*
G02*
X179989999Y-51370000I249999J0D01*
G01*
X180690001Y-51370000D01*
G75*
G02*
X180940000Y-51619999I0J-249999D01*
G01*
X180940000Y-52520001D01*
G75*
G02*
X180690001Y-52770000I-249999J0D01*
G01*
X179989999Y-52770000D01*
G75*
G02*
X179740000Y-52520001I0J249999D01*
G01*
G37*
G36*
G01*
X177740000Y-52520001D02*
X177740000Y-51619999D01*
G75*
G02*
X177989999Y-51370000I249999J0D01*
G01*
X178690001Y-51370000D01*
G75*
G02*
X178940000Y-51619999I0J-249999D01*
G01*
X178940000Y-52520001D01*
G75*
G02*
X178690001Y-52770000I-249999J0D01*
G01*
X177989999Y-52770000D01*
G75*
G02*
X177740000Y-52520001I0J249999D01*
G01*
G37*
%TD*%
%TO.C,R2*%
G36*
G01*
X113849999Y-41580000D02*
X114750001Y-41580000D01*
G75*
G02*
X115000000Y-41829999I0J-249999D01*
G01*
X115000000Y-42530001D01*
G75*
G02*
X114750001Y-42780000I-249999J0D01*
G01*
X113849999Y-42780000D01*
G75*
G02*
X113600000Y-42530001I0J249999D01*
G01*
X113600000Y-41829999D01*
G75*
G02*
X113849999Y-41580000I249999J0D01*
G01*
G37*
G36*
G01*
X113849999Y-43580000D02*
X114750001Y-43580000D01*
G75*
G02*
X115000000Y-43829999I0J-249999D01*
G01*
X115000000Y-44530001D01*
G75*
G02*
X114750001Y-44780000I-249999J0D01*
G01*
X113849999Y-44780000D01*
G75*
G02*
X113600000Y-44530001I0J249999D01*
G01*
X113600000Y-43829999D01*
G75*
G02*
X113849999Y-43580000I249999J0D01*
G01*
G37*
%TD*%
%TO.C,R3*%
G36*
G01*
X132775000Y-41459999D02*
X132775000Y-42360001D01*
G75*
G02*
X132525001Y-42610000I-249999J0D01*
G01*
X131824999Y-42610000D01*
G75*
G02*
X131575000Y-42360001I0J249999D01*
G01*
X131575000Y-41459999D01*
G75*
G02*
X131824999Y-41210000I249999J0D01*
G01*
X132525001Y-41210000D01*
G75*
G02*
X132775000Y-41459999I0J-249999D01*
G01*
G37*
G36*
G01*
X130775000Y-41459999D02*
X130775000Y-42360001D01*
G75*
G02*
X130525001Y-42610000I-249999J0D01*
G01*
X129824999Y-42610000D01*
G75*
G02*
X129575000Y-42360001I0J249999D01*
G01*
X129575000Y-41459999D01*
G75*
G02*
X129824999Y-41210000I249999J0D01*
G01*
X130525001Y-41210000D01*
G75*
G02*
X130775000Y-41459999I0J-249999D01*
G01*
G37*
%TD*%
%TO.C,R4*%
G36*
G01*
X119807500Y-101784999D02*
X119807500Y-102685001D01*
G75*
G02*
X119557501Y-102935000I-249999J0D01*
G01*
X118857499Y-102935000D01*
G75*
G02*
X118607500Y-102685001I0J249999D01*
G01*
X118607500Y-101784999D01*
G75*
G02*
X118857499Y-101535000I249999J0D01*
G01*
X119557501Y-101535000D01*
G75*
G02*
X119807500Y-101784999I0J-249999D01*
G01*
G37*
G36*
G01*
X121807500Y-101784999D02*
X121807500Y-102685001D01*
G75*
G02*
X121557501Y-102935000I-249999J0D01*
G01*
X120857499Y-102935000D01*
G75*
G02*
X120607500Y-102685001I0J249999D01*
G01*
X120607500Y-101784999D01*
G75*
G02*
X120857499Y-101535000I249999J0D01*
G01*
X121557501Y-101535000D01*
G75*
G02*
X121807500Y-101784999I0J-249999D01*
G01*
G37*
%TD*%
%TO.C,R5*%
G36*
G01*
X138125000Y-101784999D02*
X138125000Y-102685001D01*
G75*
G02*
X137875001Y-102935000I-249999J0D01*
G01*
X137174999Y-102935000D01*
G75*
G02*
X136925000Y-102685001I0J249999D01*
G01*
X136925000Y-101784999D01*
G75*
G02*
X137174999Y-101535000I249999J0D01*
G01*
X137875001Y-101535000D01*
G75*
G02*
X138125000Y-101784999I0J-249999D01*
G01*
G37*
G36*
G01*
X136125000Y-101784999D02*
X136125000Y-102685001D01*
G75*
G02*
X135875001Y-102935000I-249999J0D01*
G01*
X135174999Y-102935000D01*
G75*
G02*
X134925000Y-102685001I0J249999D01*
G01*
X134925000Y-101784999D01*
G75*
G02*
X135174999Y-101535000I249999J0D01*
G01*
X135875001Y-101535000D01*
G75*
G02*
X136125000Y-101784999I0J-249999D01*
G01*
G37*
%TD*%
%TO.C,R6*%
G36*
G01*
X154635000Y-101784999D02*
X154635000Y-102685001D01*
G75*
G02*
X154385001Y-102935000I-249999J0D01*
G01*
X153684999Y-102935000D01*
G75*
G02*
X153435000Y-102685001I0J249999D01*
G01*
X153435000Y-101784999D01*
G75*
G02*
X153684999Y-101535000I249999J0D01*
G01*
X154385001Y-101535000D01*
G75*
G02*
X154635000Y-101784999I0J-249999D01*
G01*
G37*
G36*
G01*
X152635000Y-101784999D02*
X152635000Y-102685001D01*
G75*
G02*
X152385001Y-102935000I-249999J0D01*
G01*
X151684999Y-102935000D01*
G75*
G02*
X151435000Y-102685001I0J249999D01*
G01*
X151435000Y-101784999D01*
G75*
G02*
X151684999Y-101535000I249999J0D01*
G01*
X152385001Y-101535000D01*
G75*
G02*
X152635000Y-101784999I0J-249999D01*
G01*
G37*
%TD*%
%TO.C,R7*%
G36*
G01*
X169145000Y-101784999D02*
X169145000Y-102685001D01*
G75*
G02*
X168895001Y-102935000I-249999J0D01*
G01*
X168194999Y-102935000D01*
G75*
G02*
X167945000Y-102685001I0J249999D01*
G01*
X167945000Y-101784999D01*
G75*
G02*
X168194999Y-101535000I249999J0D01*
G01*
X168895001Y-101535000D01*
G75*
G02*
X169145000Y-101784999I0J-249999D01*
G01*
G37*
G36*
G01*
X171145000Y-101784999D02*
X171145000Y-102685001D01*
G75*
G02*
X170895001Y-102935000I-249999J0D01*
G01*
X170194999Y-102935000D01*
G75*
G02*
X169945000Y-102685001I0J249999D01*
G01*
X169945000Y-101784999D01*
G75*
G02*
X170194999Y-101535000I249999J0D01*
G01*
X170895001Y-101535000D01*
G75*
G02*
X171145000Y-101784999I0J-249999D01*
G01*
G37*
%TD*%
%TO.C,R8*%
G36*
G01*
X148774999Y-69885000D02*
X149675001Y-69885000D01*
G75*
G02*
X149925000Y-70134999I0J-249999D01*
G01*
X149925000Y-70835001D01*
G75*
G02*
X149675001Y-71085000I-249999J0D01*
G01*
X148774999Y-71085000D01*
G75*
G02*
X148525000Y-70835001I0J249999D01*
G01*
X148525000Y-70134999D01*
G75*
G02*
X148774999Y-69885000I249999J0D01*
G01*
G37*
G36*
G01*
X148774999Y-71885000D02*
X149675001Y-71885000D01*
G75*
G02*
X149925000Y-72134999I0J-249999D01*
G01*
X149925000Y-72835001D01*
G75*
G02*
X149675001Y-73085000I-249999J0D01*
G01*
X148774999Y-73085000D01*
G75*
G02*
X148525000Y-72835001I0J249999D01*
G01*
X148525000Y-72134999D01*
G75*
G02*
X148774999Y-71885000I249999J0D01*
G01*
G37*
%TD*%
%TO.C,R10*%
G36*
G01*
X165405000Y-57600001D02*
X165405000Y-56699999D01*
G75*
G02*
X165654999Y-56450000I249999J0D01*
G01*
X166355001Y-56450000D01*
G75*
G02*
X166605000Y-56699999I0J-249999D01*
G01*
X166605000Y-57600001D01*
G75*
G02*
X166355001Y-57850000I-249999J0D01*
G01*
X165654999Y-57850000D01*
G75*
G02*
X165405000Y-57600001I0J249999D01*
G01*
G37*
G36*
G01*
X167405000Y-57600001D02*
X167405000Y-56699999D01*
G75*
G02*
X167654999Y-56450000I249999J0D01*
G01*
X168355001Y-56450000D01*
G75*
G02*
X168605000Y-56699999I0J-249999D01*
G01*
X168605000Y-57600001D01*
G75*
G02*
X168355001Y-57850000I-249999J0D01*
G01*
X167654999Y-57850000D01*
G75*
G02*
X167405000Y-57600001I0J249999D01*
G01*
G37*
%TD*%
%TO.C,R11*%
G36*
G01*
X184185000Y-52520001D02*
X184185000Y-51619999D01*
G75*
G02*
X184434999Y-51370000I249999J0D01*
G01*
X185135001Y-51370000D01*
G75*
G02*
X185385000Y-51619999I0J-249999D01*
G01*
X185385000Y-52520001D01*
G75*
G02*
X185135001Y-52770000I-249999J0D01*
G01*
X184434999Y-52770000D01*
G75*
G02*
X184185000Y-52520001I0J249999D01*
G01*
G37*
G36*
G01*
X182185000Y-52520001D02*
X182185000Y-51619999D01*
G75*
G02*
X182434999Y-51370000I249999J0D01*
G01*
X183135001Y-51370000D01*
G75*
G02*
X183385000Y-51619999I0J-249999D01*
G01*
X183385000Y-52520001D01*
G75*
G02*
X183135001Y-52770000I-249999J0D01*
G01*
X182434999Y-52770000D01*
G75*
G02*
X182185000Y-52520001I0J249999D01*
G01*
G37*
%TD*%
%TO.C,R12*%
G36*
G01*
X141370000Y-41725001D02*
X141370000Y-40824999D01*
G75*
G02*
X141619999Y-40575000I249999J0D01*
G01*
X142320001Y-40575000D01*
G75*
G02*
X142570000Y-40824999I0J-249999D01*
G01*
X142570000Y-41725001D01*
G75*
G02*
X142320001Y-41975000I-249999J0D01*
G01*
X141619999Y-41975000D01*
G75*
G02*
X141370000Y-41725001I0J249999D01*
G01*
G37*
G36*
G01*
X139370000Y-41725001D02*
X139370000Y-40824999D01*
G75*
G02*
X139619999Y-40575000I249999J0D01*
G01*
X140320001Y-40575000D01*
G75*
G02*
X140570000Y-40824999I0J-249999D01*
G01*
X140570000Y-41725001D01*
G75*
G02*
X140320001Y-41975000I-249999J0D01*
G01*
X139619999Y-41975000D01*
G75*
G02*
X139370000Y-41725001I0J249999D01*
G01*
G37*
%TD*%
%TO.C,R13*%
G36*
G01*
X134560000Y-41725001D02*
X134560000Y-40824999D01*
G75*
G02*
X134809999Y-40575000I249999J0D01*
G01*
X135510001Y-40575000D01*
G75*
G02*
X135760000Y-40824999I0J-249999D01*
G01*
X135760000Y-41725001D01*
G75*
G02*
X135510001Y-41975000I-249999J0D01*
G01*
X134809999Y-41975000D01*
G75*
G02*
X134560000Y-41725001I0J249999D01*
G01*
G37*
G36*
G01*
X136560000Y-41725001D02*
X136560000Y-40824999D01*
G75*
G02*
X136809999Y-40575000I249999J0D01*
G01*
X137510001Y-40575000D01*
G75*
G02*
X137760000Y-40824999I0J-249999D01*
G01*
X137760000Y-41725001D01*
G75*
G02*
X137510001Y-41975000I-249999J0D01*
G01*
X136809999Y-41975000D01*
G75*
G02*
X136560000Y-41725001I0J249999D01*
G01*
G37*
%TD*%
%TO.C,R14*%
G36*
G01*
X167135000Y-46170001D02*
X167135000Y-45269999D01*
G75*
G02*
X167384999Y-45020000I249999J0D01*
G01*
X168085001Y-45020000D01*
G75*
G02*
X168335000Y-45269999I0J-249999D01*
G01*
X168335000Y-46170001D01*
G75*
G02*
X168085001Y-46420000I-249999J0D01*
G01*
X167384999Y-46420000D01*
G75*
G02*
X167135000Y-46170001I0J249999D01*
G01*
G37*
G36*
G01*
X165135000Y-46170001D02*
X165135000Y-45269999D01*
G75*
G02*
X165384999Y-45020000I249999J0D01*
G01*
X166085001Y-45020000D01*
G75*
G02*
X166335000Y-45269999I0J-249999D01*
G01*
X166335000Y-46170001D01*
G75*
G02*
X166085001Y-46420000I-249999J0D01*
G01*
X165384999Y-46420000D01*
G75*
G02*
X165135000Y-46170001I0J249999D01*
G01*
G37*
%TD*%
%TO.C,R15*%
G36*
G01*
X181915000Y-41090001D02*
X181915000Y-40189999D01*
G75*
G02*
X182164999Y-39940000I249999J0D01*
G01*
X182865001Y-39940000D01*
G75*
G02*
X183115000Y-40189999I0J-249999D01*
G01*
X183115000Y-41090001D01*
G75*
G02*
X182865001Y-41340000I-249999J0D01*
G01*
X182164999Y-41340000D01*
G75*
G02*
X181915000Y-41090001I0J249999D01*
G01*
G37*
G36*
G01*
X183915000Y-41090001D02*
X183915000Y-40189999D01*
G75*
G02*
X184164999Y-39940000I249999J0D01*
G01*
X184865001Y-39940000D01*
G75*
G02*
X185115000Y-40189999I0J-249999D01*
G01*
X185115000Y-41090001D01*
G75*
G02*
X184865001Y-41340000I-249999J0D01*
G01*
X184164999Y-41340000D01*
G75*
G02*
X183915000Y-41090001I0J249999D01*
G01*
G37*
%TD*%
%TO.C,R16*%
G36*
G01*
X179470000Y-41090001D02*
X179470000Y-40189999D01*
G75*
G02*
X179719999Y-39940000I249999J0D01*
G01*
X180420001Y-39940000D01*
G75*
G02*
X180670000Y-40189999I0J-249999D01*
G01*
X180670000Y-41090001D01*
G75*
G02*
X180420001Y-41340000I-249999J0D01*
G01*
X179719999Y-41340000D01*
G75*
G02*
X179470000Y-41090001I0J249999D01*
G01*
G37*
G36*
G01*
X177470000Y-41090001D02*
X177470000Y-40189999D01*
G75*
G02*
X177719999Y-39940000I249999J0D01*
G01*
X178420001Y-39940000D01*
G75*
G02*
X178670000Y-40189999I0J-249999D01*
G01*
X178670000Y-41090001D01*
G75*
G02*
X178420001Y-41340000I-249999J0D01*
G01*
X177719999Y-41340000D01*
G75*
G02*
X177470000Y-41090001I0J249999D01*
G01*
G37*
%TD*%
%TO.C,R17*%
G36*
G01*
X165135000Y-34740001D02*
X165135000Y-33839999D01*
G75*
G02*
X165384999Y-33590000I249999J0D01*
G01*
X166085001Y-33590000D01*
G75*
G02*
X166335000Y-33839999I0J-249999D01*
G01*
X166335000Y-34740001D01*
G75*
G02*
X166085001Y-34990000I-249999J0D01*
G01*
X165384999Y-34990000D01*
G75*
G02*
X165135000Y-34740001I0J249999D01*
G01*
G37*
G36*
G01*
X167135000Y-34740001D02*
X167135000Y-33839999D01*
G75*
G02*
X167384999Y-33590000I249999J0D01*
G01*
X168085001Y-33590000D01*
G75*
G02*
X168335000Y-33839999I0J-249999D01*
G01*
X168335000Y-34740001D01*
G75*
G02*
X168085001Y-34990000I-249999J0D01*
G01*
X167384999Y-34990000D01*
G75*
G02*
X167135000Y-34740001I0J249999D01*
G01*
G37*
%TD*%
%TO.C,R18*%
G36*
G01*
X183915000Y-29660001D02*
X183915000Y-28759999D01*
G75*
G02*
X184164999Y-28510000I249999J0D01*
G01*
X184865001Y-28510000D01*
G75*
G02*
X185115000Y-28759999I0J-249999D01*
G01*
X185115000Y-29660001D01*
G75*
G02*
X184865001Y-29910000I-249999J0D01*
G01*
X184164999Y-29910000D01*
G75*
G02*
X183915000Y-29660001I0J249999D01*
G01*
G37*
G36*
G01*
X181915000Y-29660001D02*
X181915000Y-28759999D01*
G75*
G02*
X182164999Y-28510000I249999J0D01*
G01*
X182865001Y-28510000D01*
G75*
G02*
X183115000Y-28759999I0J-249999D01*
G01*
X183115000Y-29660001D01*
G75*
G02*
X182865001Y-29910000I-249999J0D01*
G01*
X182164999Y-29910000D01*
G75*
G02*
X181915000Y-29660001I0J249999D01*
G01*
G37*
%TD*%
%TO.C,R19*%
G36*
G01*
X177470000Y-29660001D02*
X177470000Y-28759999D01*
G75*
G02*
X177719999Y-28510000I249999J0D01*
G01*
X178420001Y-28510000D01*
G75*
G02*
X178670000Y-28759999I0J-249999D01*
G01*
X178670000Y-29660001D01*
G75*
G02*
X178420001Y-29910000I-249999J0D01*
G01*
X177719999Y-29910000D01*
G75*
G02*
X177470000Y-29660001I0J249999D01*
G01*
G37*
G36*
G01*
X179470000Y-29660001D02*
X179470000Y-28759999D01*
G75*
G02*
X179719999Y-28510000I249999J0D01*
G01*
X180420001Y-28510000D01*
G75*
G02*
X180670000Y-28759999I0J-249999D01*
G01*
X180670000Y-29660001D01*
G75*
G02*
X180420001Y-29910000I-249999J0D01*
G01*
X179719999Y-29910000D01*
G75*
G02*
X179470000Y-29660001I0J249999D01*
G01*
G37*
%TD*%
%TO.C,R9*%
G36*
G01*
X150310001Y-58115000D02*
X149409999Y-58115000D01*
G75*
G02*
X149160000Y-57865001I0J249999D01*
G01*
X149160000Y-57164999D01*
G75*
G02*
X149409999Y-56915000I249999J0D01*
G01*
X150310001Y-56915000D01*
G75*
G02*
X150560000Y-57164999I0J-249999D01*
G01*
X150560000Y-57865001D01*
G75*
G02*
X150310001Y-58115000I-249999J0D01*
G01*
G37*
G36*
G01*
X150310001Y-56115000D02*
X149409999Y-56115000D01*
G75*
G02*
X149160000Y-55865001I0J249999D01*
G01*
X149160000Y-55164999D01*
G75*
G02*
X149409999Y-54915000I249999J0D01*
G01*
X150310001Y-54915000D01*
G75*
G02*
X150560000Y-55164999I0J-249999D01*
G01*
X150560000Y-55865001D01*
G75*
G02*
X150310001Y-56115000I-249999J0D01*
G01*
G37*
%TD*%
%TO.C,R20*%
G36*
G01*
X152850001Y-56115000D02*
X151949999Y-56115000D01*
G75*
G02*
X151700000Y-55865001I0J249999D01*
G01*
X151700000Y-55164999D01*
G75*
G02*
X151949999Y-54915000I249999J0D01*
G01*
X152850001Y-54915000D01*
G75*
G02*
X153100000Y-55164999I0J-249999D01*
G01*
X153100000Y-55865001D01*
G75*
G02*
X152850001Y-56115000I-249999J0D01*
G01*
G37*
G36*
G01*
X152850001Y-58115000D02*
X151949999Y-58115000D01*
G75*
G02*
X151700000Y-57865001I0J249999D01*
G01*
X151700000Y-57164999D01*
G75*
G02*
X151949999Y-56915000I249999J0D01*
G01*
X152850001Y-56915000D01*
G75*
G02*
X153100000Y-57164999I0J-249999D01*
G01*
X153100000Y-57865001D01*
G75*
G02*
X152850001Y-58115000I-249999J0D01*
G01*
G37*
%TD*%
%TO.C,R21*%
G36*
G01*
X155390001Y-58115000D02*
X154489999Y-58115000D01*
G75*
G02*
X154240000Y-57865001I0J249999D01*
G01*
X154240000Y-57164999D01*
G75*
G02*
X154489999Y-56915000I249999J0D01*
G01*
X155390001Y-56915000D01*
G75*
G02*
X155640000Y-57164999I0J-249999D01*
G01*
X155640000Y-57865001D01*
G75*
G02*
X155390001Y-58115000I-249999J0D01*
G01*
G37*
G36*
G01*
X155390001Y-56115000D02*
X154489999Y-56115000D01*
G75*
G02*
X154240000Y-55865001I0J249999D01*
G01*
X154240000Y-55164999D01*
G75*
G02*
X154489999Y-54915000I249999J0D01*
G01*
X155390001Y-54915000D01*
G75*
G02*
X155640000Y-55164999I0J-249999D01*
G01*
X155640000Y-55865001D01*
G75*
G02*
X155390001Y-56115000I-249999J0D01*
G01*
G37*
%TD*%
M02*
