M48
; DRILL file {KiCad (5.1.12)-1} date 08/13/22 13:45:17
; FORMAT={-:-/ absolute / metric / decimal}
; #@! TF.CreationDate,2022-08-13T13:45:17+02:00
; #@! TF.GenerationSoftware,Kicad,Pcbnew,(5.1.12)-1
; #@! TF.FileFunction,Plated,1,2,PTH
FMAT,2
METRIC
T1C0.400
T2C0.750
T3C0.800
T4C1.000
T5C1.020
T6C1.100
T7C1.200
T8C1.300
T9C1.520
T10C2.500
%
G90
G05
T1
X112.203Y-97.79
X112.395Y-73.66
X143.51Y-73.66
X154.94Y-53.34
T2
X170.18Y-33.02
X170.18Y-34.29
X170.18Y-35.56
X170.18Y-44.45
X170.18Y-45.72
X170.18Y-46.99
X170.18Y-55.88
X170.18Y-57.15
X170.18Y-58.42
T3
X102.87Y-34.29
X105.37Y-34.29
X111.125Y-41.91
X111.125Y-44.41
X122.555Y-29.845
X122.555Y-37.465
X125.095Y-29.845
X125.095Y-37.465
X127.635Y-29.845
X127.635Y-37.465
X162.56Y-22.9
X162.56Y-25.4
T4
X102.87Y-41.91
X102.87Y-44.45
X102.87Y-49.53
X102.87Y-52.07
X102.87Y-54.61
X102.87Y-57.15
X102.87Y-59.69
X102.87Y-66.04
X102.87Y-68.58
X102.87Y-71.12
X102.87Y-73.66
X105.41Y-49.53
X105.41Y-52.07
X105.41Y-54.61
X105.41Y-57.15
X105.41Y-59.69
X121.92Y-44.45
X121.92Y-59.69
X124.46Y-44.45
X124.46Y-59.69
X127.0Y-44.45
X127.0Y-59.69
X129.54Y-44.45
X129.54Y-59.69
X132.08Y-44.45
X132.08Y-59.69
X134.62Y-44.45
X134.62Y-59.69
X137.16Y-44.45
X137.16Y-59.69
X139.7Y-44.45
X139.7Y-59.69
X140.335Y-18.415
X142.24Y-44.45
X142.24Y-59.69
X142.875Y-18.415
X144.78Y-44.45
X144.78Y-59.69
X145.415Y-18.415
X147.32Y-44.45
X147.32Y-59.69
X147.955Y-18.415
X149.86Y-44.45
X149.86Y-59.69
X152.4Y-44.45
X152.4Y-59.69
X154.94Y-44.45
X154.94Y-59.69
X157.48Y-44.45
X157.48Y-59.69
T5
X135.255Y-23.495
X135.255Y-36.195
X137.795Y-23.495
X137.795Y-36.195
X140.335Y-23.495
X140.335Y-36.195
X142.875Y-23.495
X142.875Y-36.195
X145.415Y-23.495
X145.415Y-36.195
X147.955Y-23.495
X147.955Y-36.195
X150.495Y-23.495
X150.495Y-36.195
X153.035Y-23.495
X153.035Y-36.195
T6
X175.895Y-35.56
X175.895Y-46.99
X175.895Y-58.42
X178.435Y-35.56
X178.435Y-46.99
X178.435Y-58.42
X180.975Y-35.56
X180.975Y-46.99
X180.975Y-58.42
T7
X113.665Y-67.31
X116.205Y-67.31
X118.745Y-67.31
X121.285Y-67.31
X123.825Y-67.31
X126.365Y-67.31
X128.905Y-67.31
X131.445Y-67.31
X133.985Y-67.31
X136.525Y-67.31
X139.065Y-67.31
X141.605Y-67.31
X144.145Y-67.31
X146.685Y-67.31
X149.225Y-67.31
X151.765Y-67.31
T8
X99.695Y-78.74
X99.695Y-88.74
X102.195Y-83.74
X105.61Y-105.49
X105.61Y-110.49
X118.11Y-105.49
X118.11Y-110.49
X122.12Y-105.49
X122.12Y-110.49
X134.62Y-105.49
X134.62Y-110.49
X138.63Y-105.49
X138.63Y-110.49
X151.13Y-105.49
X151.13Y-110.49
X155.14Y-105.49
X155.14Y-110.49
X167.64Y-105.49
X167.64Y-110.49
X171.65Y-105.49
X171.65Y-110.49
X184.15Y-105.49
X184.15Y-110.49
T9
X109.855Y-22.86
X114.935Y-22.86
X120.015Y-22.86
X187.96Y-29.21
X187.96Y-34.29
X187.96Y-40.64
X187.96Y-45.72
X187.96Y-52.07
X187.96Y-57.15
T10
X108.166Y-67.31
X108.166Y-98.311
X183.164Y-98.311
X183.165Y-67.31
T0
M30
