%TF.GenerationSoftware,KiCad,Pcbnew,(5.1.12)-1*%
%TF.CreationDate,2022-07-15T12:08:26+02:00*%
%TF.ProjectId,petpuller,70657470-756c-46c6-9572-2e6b69636164,rev?*%
%TF.SameCoordinates,Original*%
%TF.FileFunction,Copper,L1,Top*%
%TF.FilePolarity,Positive*%
%FSLAX46Y46*%
G04 Gerber Fmt 4.6, Leading zero omitted, Abs format (unit mm)*
G04 Created by KiCad (PCBNEW (5.1.12)-1) date 2022-07-15 12:08:26*
%MOMM*%
%LPD*%
G01*
G04 APERTURE LIST*
%TA.AperFunction,ComponentPad*%
%ADD10R,1.600000X1.600000*%
%TD*%
%TA.AperFunction,ComponentPad*%
%ADD11O,1.600000X1.600000*%
%TD*%
%TA.AperFunction,ComponentPad*%
%ADD12C,1.600000*%
%TD*%
%TA.AperFunction,ComponentPad*%
%ADD13R,1.800000X2.600000*%
%TD*%
%TA.AperFunction,ComponentPad*%
%ADD14O,1.800000X2.600000*%
%TD*%
%TA.AperFunction,ComponentPad*%
%ADD15C,3.000000*%
%TD*%
%TA.AperFunction,ComponentPad*%
%ADD16R,1.700000X1.700000*%
%TD*%
%TA.AperFunction,ComponentPad*%
%ADD17O,1.700000X1.700000*%
%TD*%
%TA.AperFunction,ComponentPad*%
%ADD18C,2.340000*%
%TD*%
%TA.AperFunction,ComponentPad*%
%ADD19R,1.530000X1.530000*%
%TD*%
%TA.AperFunction,ComponentPad*%
%ADD20C,1.530000*%
%TD*%
%TA.AperFunction,ComponentPad*%
%ADD21R,1.905000X2.000000*%
%TD*%
%TA.AperFunction,ComponentPad*%
%ADD22O,1.905000X2.000000*%
%TD*%
%TA.AperFunction,ComponentPad*%
%ADD23R,3.000000X3.000000*%
%TD*%
%TA.AperFunction,ComponentPad*%
%ADD24O,3.048000X1.850000*%
%TD*%
%TA.AperFunction,ComponentPad*%
%ADD25O,1.500000X1.050000*%
%TD*%
%TA.AperFunction,ComponentPad*%
%ADD26R,1.500000X1.050000*%
%TD*%
%TA.AperFunction,ViaPad*%
%ADD27C,0.800000*%
%TD*%
%TA.AperFunction,Conductor*%
%ADD28C,1.000000*%
%TD*%
%TA.AperFunction,Conductor*%
%ADD29C,2.000000*%
%TD*%
G04 APERTURE END LIST*
D10*
%TO.P,A1,1*%
%TO.N,D1TX*%
X121920000Y-59690000D03*
D11*
%TO.P,A1,17*%
%TO.N,N/C*%
X154940000Y-44450000D03*
%TO.P,A1,2*%
%TO.N,D0RX*%
X124460000Y-59690000D03*
%TO.P,A1,18*%
%TO.N,aRef*%
X152400000Y-44450000D03*
%TO.P,A1,3*%
%TO.N,N/C*%
X127000000Y-59690000D03*
%TO.P,A1,19*%
%TO.N,A1*%
X149860000Y-44450000D03*
%TO.P,A1,4*%
%TO.N,GND*%
X129540000Y-59690000D03*
%TO.P,A1,20*%
%TO.N,A2*%
X147320000Y-44450000D03*
%TO.P,A1,5*%
%TO.N,lcdRS*%
X132080000Y-59690000D03*
%TO.P,A1,21*%
%TO.N,A3*%
X144780000Y-44450000D03*
%TO.P,A1,6*%
%TO.N,lcdEN*%
X134620000Y-59690000D03*
%TO.P,A1,22*%
%TO.N,A4*%
X142240000Y-44450000D03*
%TO.P,A1,7*%
%TO.N,lcdD4*%
X137160000Y-59690000D03*
%TO.P,A1,23*%
%TO.N,A5*%
X139700000Y-44450000D03*
%TO.P,A1,8*%
%TO.N,lcdD5*%
X139700000Y-59690000D03*
%TO.P,A1,24*%
%TO.N,rawDivider*%
X137160000Y-44450000D03*
%TO.P,A1,9*%
%TO.N,lcdD6*%
X142240000Y-59690000D03*
%TO.P,A1,25*%
%TO.N,thermistorProbe*%
X134620000Y-44450000D03*
%TO.P,A1,10*%
%TO.N,lcdD7*%
X144780000Y-59690000D03*
%TO.P,A1,26*%
%TO.N,keyProbe*%
X132080000Y-44450000D03*
%TO.P,A1,11*%
%TO.N,motorStep*%
X147320000Y-59690000D03*
%TO.P,A1,27*%
%TO.N,+5V*%
X129540000Y-44450000D03*
%TO.P,A1,12*%
%TO.N,heater*%
X149860000Y-59690000D03*
%TO.P,A1,28*%
%TO.N,N/C*%
X127000000Y-44450000D03*
%TO.P,A1,13*%
%TO.N,fan*%
X152400000Y-59690000D03*
%TO.P,A1,29*%
%TO.N,GND*%
X124460000Y-44450000D03*
%TO.P,A1,14*%
%TO.N,additionalPwm*%
X154940000Y-59690000D03*
%TO.P,A1,30*%
%TO.N,N/C*%
X121920000Y-44450000D03*
%TO.P,A1,15*%
%TO.N,motorEnable*%
X157480000Y-59690000D03*
%TO.P,A1,16*%
%TO.N,motorDir*%
X157480000Y-44450000D03*
%TD*%
D10*
%TO.P,C1,1*%
%TO.N,thermistorProbe*%
X111125000Y-41910000D03*
D12*
%TO.P,C1,2*%
%TO.N,GND*%
X111125000Y-44410000D03*
%TD*%
D13*
%TO.P,DS1,1*%
%TO.N,GND*%
X113665000Y-67310000D03*
D14*
%TO.P,DS1,2*%
%TO.N,+5V*%
X116205000Y-67310000D03*
%TO.P,DS1,3*%
%TO.N,Net-(DS1-Pad3)*%
X118745000Y-67310000D03*
%TO.P,DS1,4*%
%TO.N,lcdRS*%
X121285000Y-67310000D03*
%TO.P,DS1,5*%
%TO.N,GND*%
X123825000Y-67310000D03*
%TO.P,DS1,6*%
%TO.N,lcdEN*%
X126365000Y-67310000D03*
%TO.P,DS1,7*%
%TO.N,N/C*%
X128905000Y-67310000D03*
%TO.P,DS1,8*%
X131445000Y-67310000D03*
%TO.P,DS1,9*%
X133985000Y-67310000D03*
%TO.P,DS1,10*%
X136525000Y-67310000D03*
%TO.P,DS1,11*%
%TO.N,lcdD4*%
X139065000Y-67310000D03*
%TO.P,DS1,12*%
%TO.N,lcdD5*%
X141605000Y-67310000D03*
%TO.P,DS1,13*%
%TO.N,lcdD6*%
X144145000Y-67310000D03*
%TO.P,DS1,14*%
%TO.N,lcdD7*%
X146685000Y-67310000D03*
%TO.P,DS1,15*%
%TO.N,Net-(DS1-Pad15)*%
X149225000Y-67310000D03*
%TO.P,DS1,16*%
%TO.N,GND*%
X151765000Y-67310000D03*
D15*
%TO.P,DS1,*%
%TO.N,*%
X108165900Y-67310000D03*
X108165900Y-98310700D03*
X183164480Y-98310700D03*
X183165000Y-67310000D03*
%TD*%
D16*
%TO.P,J2,1*%
%TO.N,Net-(J2-Pad1)*%
X147955000Y-18415000D03*
D17*
%TO.P,J2,2*%
%TO.N,Net-(J2-Pad2)*%
X145415000Y-18415000D03*
%TO.P,J2,3*%
%TO.N,Net-(J2-Pad3)*%
X142875000Y-18415000D03*
%TO.P,J2,4*%
%TO.N,Net-(J2-Pad4)*%
X140335000Y-18415000D03*
%TD*%
D16*
%TO.P,J3,1*%
%TO.N,thermistorProbe*%
X102870000Y-41910000D03*
D17*
%TO.P,J3,2*%
%TO.N,GND*%
X102870000Y-44450000D03*
%TD*%
D18*
%TO.P,RV1,3*%
%TO.N,GND*%
X99695000Y-88740000D03*
%TO.P,RV1,2*%
%TO.N,Net-(DS1-Pad3)*%
X102195000Y-83740000D03*
%TO.P,RV1,1*%
%TO.N,+5V*%
X99695000Y-78740000D03*
%TD*%
D19*
%TO.P,U1,1*%
%TO.N,motorEnable*%
X135255000Y-36195000D03*
D20*
%TO.P,U1,2*%
%TO.N,Net-(SW1-Pad4)*%
X137795000Y-36195000D03*
%TO.P,U1,3*%
%TO.N,Net-(SW1-Pad5)*%
X140335000Y-36195000D03*
%TO.P,U1,4*%
%TO.N,Net-(SW1-Pad6)*%
X142875000Y-36195000D03*
%TO.P,U1,5*%
%TO.N,Net-(U1-Pad5)*%
X145415000Y-36195000D03*
%TO.P,U1,6*%
X147955000Y-36195000D03*
%TO.P,U1,7*%
%TO.N,motorStep*%
X150495000Y-36195000D03*
%TO.P,U1,8*%
%TO.N,motorDir*%
X153035000Y-36195000D03*
%TO.P,U1,9*%
%TO.N,GND*%
X153035000Y-23495000D03*
%TO.P,U1,10*%
%TO.N,+5V*%
X150495000Y-23495000D03*
%TO.P,U1,11*%
%TO.N,Net-(J2-Pad1)*%
X147955000Y-23495000D03*
%TO.P,U1,12*%
%TO.N,Net-(J2-Pad2)*%
X145415000Y-23495000D03*
%TO.P,U1,13*%
%TO.N,Net-(J2-Pad3)*%
X142875000Y-23495000D03*
%TO.P,U1,14*%
%TO.N,Net-(J2-Pad4)*%
X140335000Y-23495000D03*
%TO.P,U1,15*%
%TO.N,GND*%
X137795000Y-23495000D03*
%TO.P,U1,16*%
%TO.N,+24V*%
X135255000Y-23495000D03*
%TD*%
D21*
%TO.P,Q1,1*%
%TO.N,Net-(J1-Pad2)*%
X180975000Y-56515000D03*
D22*
%TO.P,Q1,2*%
%TO.N,Net-(Q1-Pad2)*%
X178435000Y-56515000D03*
%TO.P,Q1,3*%
%TO.N,GND*%
X175895000Y-56515000D03*
%TD*%
D23*
%TO.P,J4,1*%
%TO.N,+24V*%
X120015000Y-22860000D03*
D15*
%TO.P,J4,2*%
%TO.N,GND*%
X114935000Y-22860000D03*
%TO.P,J4,3*%
%TO.N,+5V*%
X109855000Y-22860000D03*
%TD*%
D24*
%TO.P,SW2,1*%
%TO.N,GND*%
X105610000Y-110490000D03*
%TO.P,SW2,2*%
%TO.N,keyProbe*%
X105610000Y-105490000D03*
%TO.P,SW2,1*%
%TO.N,GND*%
X118110000Y-110490000D03*
%TO.P,SW2,2*%
%TO.N,keyProbe*%
X118110000Y-105490000D03*
%TD*%
%TO.P,SW3,2*%
%TO.N,Net-(R5-Pad1)*%
X151130000Y-105490000D03*
%TO.P,SW3,1*%
%TO.N,GND*%
X151130000Y-110490000D03*
%TO.P,SW3,2*%
%TO.N,Net-(R5-Pad1)*%
X138630000Y-105490000D03*
%TO.P,SW3,1*%
%TO.N,GND*%
X138630000Y-110490000D03*
%TD*%
%TO.P,SW4,1*%
%TO.N,GND*%
X155140000Y-110490000D03*
%TO.P,SW4,2*%
%TO.N,Net-(R6-Pad1)*%
X155140000Y-105490000D03*
%TO.P,SW4,1*%
%TO.N,GND*%
X167640000Y-110490000D03*
%TO.P,SW4,2*%
%TO.N,Net-(R6-Pad1)*%
X167640000Y-105490000D03*
%TD*%
%TO.P,SW5,2*%
%TO.N,Net-(R4-Pad1)*%
X134620000Y-105490000D03*
%TO.P,SW5,1*%
%TO.N,GND*%
X134620000Y-110490000D03*
%TO.P,SW5,2*%
%TO.N,Net-(R4-Pad1)*%
X122120000Y-105490000D03*
%TO.P,SW5,1*%
%TO.N,GND*%
X122120000Y-110490000D03*
%TD*%
%TO.P,SW6,1*%
%TO.N,GND*%
X171650000Y-110490000D03*
%TO.P,SW6,2*%
%TO.N,Net-(R7-Pad1)*%
X171650000Y-105490000D03*
%TO.P,SW6,1*%
%TO.N,GND*%
X184150000Y-110490000D03*
%TO.P,SW6,2*%
%TO.N,Net-(R7-Pad1)*%
X184150000Y-105490000D03*
%TD*%
D23*
%TO.P,J1,1*%
%TO.N,+24V*%
X187960000Y-52070000D03*
D15*
%TO.P,J1,2*%
%TO.N,Net-(J1-Pad2)*%
X187960000Y-57150000D03*
%TD*%
D25*
%TO.P,Q2,2*%
%TO.N,Net-(Q2-Pad2)*%
X170180000Y-57150000D03*
%TO.P,Q2,3*%
%TO.N,GND*%
X170180000Y-55880000D03*
D26*
%TO.P,Q2,1*%
%TO.N,Net-(Q1-Pad2)*%
X170180000Y-58420000D03*
%TD*%
D10*
%TO.P,SW1,1*%
%TO.N,+5V*%
X122555000Y-37465000D03*
D11*
%TO.P,SW1,4*%
%TO.N,Net-(SW1-Pad4)*%
X127635000Y-29845000D03*
%TO.P,SW1,2*%
%TO.N,+5V*%
X125095000Y-37465000D03*
%TO.P,SW1,5*%
%TO.N,Net-(SW1-Pad5)*%
X125095000Y-29845000D03*
%TO.P,SW1,3*%
%TO.N,+5V*%
X127635000Y-37465000D03*
%TO.P,SW1,6*%
%TO.N,Net-(SW1-Pad6)*%
X122555000Y-29845000D03*
%TD*%
D16*
%TO.P,J5,1*%
%TO.N,+5V*%
X102870000Y-73660000D03*
D17*
%TO.P,J5,2*%
%TO.N,D0RX*%
X102870000Y-71120000D03*
%TO.P,J5,3*%
%TO.N,D1TX*%
X102870000Y-68580000D03*
%TO.P,J5,4*%
%TO.N,GND*%
X102870000Y-66040000D03*
%TD*%
D16*
%TO.P,J6,1*%
%TO.N,A1*%
X105410000Y-59690000D03*
D17*
%TO.P,J6,2*%
%TO.N,aRef*%
X102870000Y-59690000D03*
%TO.P,J6,3*%
%TO.N,A2*%
X105410000Y-57150000D03*
%TO.P,J6,4*%
%TO.N,GND*%
X102870000Y-57150000D03*
%TO.P,J6,5*%
%TO.N,A3*%
X105410000Y-54610000D03*
%TO.P,J6,6*%
%TO.N,GND*%
X102870000Y-54610000D03*
%TO.P,J6,7*%
%TO.N,A4*%
X105410000Y-52070000D03*
%TO.P,J6,8*%
%TO.N,GND*%
X102870000Y-52070000D03*
%TO.P,J6,9*%
%TO.N,A5*%
X105410000Y-49530000D03*
%TO.P,J6,10*%
%TO.N,GND*%
X102870000Y-49530000D03*
%TD*%
D15*
%TO.P,J7,2*%
%TO.N,Net-(J7-Pad2)*%
X187960000Y-45720000D03*
D23*
%TO.P,J7,1*%
%TO.N,+24V*%
X187960000Y-40640000D03*
%TD*%
%TO.P,J8,1*%
%TO.N,+24V*%
X187960000Y-29210000D03*
D15*
%TO.P,J8,2*%
%TO.N,Net-(J8-Pad2)*%
X187960000Y-34290000D03*
%TD*%
D26*
%TO.P,Q3,1*%
%TO.N,Net-(Q3-Pad1)*%
X170180000Y-46990000D03*
D25*
%TO.P,Q3,3*%
%TO.N,GND*%
X170180000Y-44450000D03*
%TO.P,Q3,2*%
%TO.N,Net-(Q3-Pad2)*%
X170180000Y-45720000D03*
%TD*%
D22*
%TO.P,Q4,3*%
%TO.N,GND*%
X175895000Y-45085000D03*
%TO.P,Q4,2*%
%TO.N,Net-(Q3-Pad1)*%
X178435000Y-45085000D03*
D21*
%TO.P,Q4,1*%
%TO.N,Net-(J7-Pad2)*%
X180975000Y-45085000D03*
%TD*%
D25*
%TO.P,Q5,2*%
%TO.N,Net-(Q5-Pad2)*%
X170180000Y-34290000D03*
%TO.P,Q5,3*%
%TO.N,GND*%
X170180000Y-33020000D03*
D26*
%TO.P,Q5,1*%
%TO.N,Net-(Q5-Pad1)*%
X170180000Y-35560000D03*
%TD*%
D21*
%TO.P,Q6,1*%
%TO.N,Net-(J8-Pad2)*%
X180975000Y-33655000D03*
D22*
%TO.P,Q6,2*%
%TO.N,Net-(Q5-Pad1)*%
X178435000Y-33655000D03*
%TO.P,Q6,3*%
%TO.N,GND*%
X175895000Y-33655000D03*
%TD*%
D27*
%TO.N,+5V*%
X143510000Y-73660000D03*
X112395000Y-73660000D03*
%TO.N,keyProbe*%
X112202500Y-97790000D03*
%TD*%
D28*
%TO.N,+5V*%
X150495000Y-23495000D02*
X140335000Y-33655000D01*
X131445000Y-33655000D02*
X127635000Y-37465000D01*
X140335000Y-33655000D02*
X131445000Y-33655000D01*
X112395000Y-73660000D02*
X143510000Y-73660000D01*
X102870000Y-73660000D02*
X112395000Y-73660000D01*
D29*
X102870000Y-73660000D02*
X99695000Y-73660000D01*
X99695000Y-73660000D02*
X99695000Y-78740000D01*
X99695000Y-37465000D02*
X99695000Y-38735000D01*
X99695000Y-38735000D02*
X99695000Y-73660000D01*
X109855000Y-27305000D02*
X99695000Y-37465000D01*
X109855000Y-22860000D02*
X109855000Y-27305000D01*
D28*
%TO.N,keyProbe*%
X132080000Y-44450000D02*
X142240000Y-54610000D01*
X142240000Y-54610000D02*
X157480000Y-54610000D01*
X157480000Y-54610000D02*
X160655000Y-57785000D01*
X160655000Y-57785000D02*
X160655000Y-68580000D01*
X131445000Y-97790000D02*
X112202500Y-97790000D01*
X160655000Y-68580000D02*
X131445000Y-97790000D01*
%TO.N,Net-(Q1-Pad2)*%
X176530000Y-58420000D02*
X178435000Y-56515000D01*
X170180000Y-58420000D02*
X176530000Y-58420000D01*
%TO.N,Net-(Q3-Pad1)*%
X176530000Y-46990000D02*
X178435000Y-45085000D01*
X170180000Y-46990000D02*
X176530000Y-46990000D01*
%TO.N,Net-(Q5-Pad1)*%
X176530000Y-35560000D02*
X178435000Y-33655000D01*
X170180000Y-35560000D02*
X176530000Y-35560000D01*
%TD*%
M02*
