%TF.GenerationSoftware,KiCad,Pcbnew,(5.1.12)-1*%
%TF.CreationDate,2022-08-13T13:45:03+02:00*%
%TF.ProjectId,petpuller,70657470-756c-46c6-9572-2e6b69636164,rev?*%
%TF.SameCoordinates,Original*%
%TF.FileFunction,Legend,Bot*%
%TF.FilePolarity,Positive*%
%FSLAX46Y46*%
G04 Gerber Fmt 4.6, Leading zero omitted, Abs format (unit mm)*
G04 Created by KiCad (PCBNEW (5.1.12)-1) date 2022-08-13 13:45:03*
%MOMM*%
%LPD*%
G01*
G04 APERTURE LIST*
%ADD10C,0.120000*%
%ADD11C,0.150000*%
G04 APERTURE END LIST*
D10*
%TO.C,R1*%
X179112936Y-52805000D02*
X179567064Y-52805000D01*
X179112936Y-51335000D02*
X179567064Y-51335000D01*
%TO.C,R2*%
X115035000Y-42952936D02*
X115035000Y-43407064D01*
X113565000Y-42952936D02*
X113565000Y-43407064D01*
%TO.C,R3*%
X131402064Y-42645000D02*
X130947936Y-42645000D01*
X131402064Y-41175000D02*
X130947936Y-41175000D01*
%TO.C,R4*%
X120434564Y-101500000D02*
X119980436Y-101500000D01*
X120434564Y-102970000D02*
X119980436Y-102970000D01*
%TO.C,R5*%
X136752064Y-102970000D02*
X136297936Y-102970000D01*
X136752064Y-101500000D02*
X136297936Y-101500000D01*
%TO.C,R6*%
X153262064Y-102970000D02*
X152807936Y-102970000D01*
X153262064Y-101500000D02*
X152807936Y-101500000D01*
%TO.C,R7*%
X169772064Y-101500000D02*
X169317936Y-101500000D01*
X169772064Y-102970000D02*
X169317936Y-102970000D01*
%TO.C,R8*%
X149960000Y-71257936D02*
X149960000Y-71712064D01*
X148490000Y-71257936D02*
X148490000Y-71712064D01*
%TO.C,R10*%
X166777936Y-56415000D02*
X167232064Y-56415000D01*
X166777936Y-57885000D02*
X167232064Y-57885000D01*
%TO.C,R11*%
X183557936Y-52805000D02*
X184012064Y-52805000D01*
X183557936Y-51335000D02*
X184012064Y-51335000D01*
%TO.C,R12*%
X140742936Y-42010000D02*
X141197064Y-42010000D01*
X140742936Y-40540000D02*
X141197064Y-40540000D01*
%TO.C,R13*%
X135932936Y-40540000D02*
X136387064Y-40540000D01*
X135932936Y-42010000D02*
X136387064Y-42010000D01*
%TO.C,R14*%
X166507936Y-44985000D02*
X166962064Y-44985000D01*
X166507936Y-46455000D02*
X166962064Y-46455000D01*
%TO.C,R15*%
X183287936Y-41375000D02*
X183742064Y-41375000D01*
X183287936Y-39905000D02*
X183742064Y-39905000D01*
%TO.C,R16*%
X178842936Y-39905000D02*
X179297064Y-39905000D01*
X178842936Y-41375000D02*
X179297064Y-41375000D01*
%TO.C,R17*%
X166507936Y-35025000D02*
X166962064Y-35025000D01*
X166507936Y-33555000D02*
X166962064Y-33555000D01*
%TO.C,R18*%
X183287936Y-28475000D02*
X183742064Y-28475000D01*
X183287936Y-29945000D02*
X183742064Y-29945000D01*
%TO.C,R19*%
X178842936Y-29945000D02*
X179297064Y-29945000D01*
X178842936Y-28475000D02*
X179297064Y-28475000D01*
%TO.C,R9*%
X149125000Y-56742064D02*
X149125000Y-56287936D01*
X150595000Y-56742064D02*
X150595000Y-56287936D01*
%TO.C,R20*%
X153135000Y-56742064D02*
X153135000Y-56287936D01*
X151665000Y-56742064D02*
X151665000Y-56287936D01*
%TO.C,R21*%
X154205000Y-56742064D02*
X154205000Y-56287936D01*
X155675000Y-56742064D02*
X155675000Y-56287936D01*
%TO.C,R1*%
D11*
X179506666Y-54172380D02*
X179840000Y-53696190D01*
X180078095Y-54172380D02*
X180078095Y-53172380D01*
X179697142Y-53172380D01*
X179601904Y-53220000D01*
X179554285Y-53267619D01*
X179506666Y-53362857D01*
X179506666Y-53505714D01*
X179554285Y-53600952D01*
X179601904Y-53648571D01*
X179697142Y-53696190D01*
X180078095Y-53696190D01*
X178554285Y-54172380D02*
X179125714Y-54172380D01*
X178840000Y-54172380D02*
X178840000Y-53172380D01*
X178935238Y-53315238D01*
X179030476Y-53410476D01*
X179125714Y-53458095D01*
%TO.C,R2*%
X116657380Y-39838333D02*
X116181190Y-39505000D01*
X116657380Y-39266904D02*
X115657380Y-39266904D01*
X115657380Y-39647857D01*
X115705000Y-39743095D01*
X115752619Y-39790714D01*
X115847857Y-39838333D01*
X115990714Y-39838333D01*
X116085952Y-39790714D01*
X116133571Y-39743095D01*
X116181190Y-39647857D01*
X116181190Y-39266904D01*
X115752619Y-40219285D02*
X115705000Y-40266904D01*
X115657380Y-40362142D01*
X115657380Y-40600238D01*
X115705000Y-40695476D01*
X115752619Y-40743095D01*
X115847857Y-40790714D01*
X115943095Y-40790714D01*
X116085952Y-40743095D01*
X116657380Y-40171666D01*
X116657380Y-40790714D01*
%TO.C,R3*%
X131341666Y-40712380D02*
X131675000Y-40236190D01*
X131913095Y-40712380D02*
X131913095Y-39712380D01*
X131532142Y-39712380D01*
X131436904Y-39760000D01*
X131389285Y-39807619D01*
X131341666Y-39902857D01*
X131341666Y-40045714D01*
X131389285Y-40140952D01*
X131436904Y-40188571D01*
X131532142Y-40236190D01*
X131913095Y-40236190D01*
X131008333Y-39712380D02*
X130389285Y-39712380D01*
X130722619Y-40093333D01*
X130579761Y-40093333D01*
X130484523Y-40140952D01*
X130436904Y-40188571D01*
X130389285Y-40283809D01*
X130389285Y-40521904D01*
X130436904Y-40617142D01*
X130484523Y-40664761D01*
X130579761Y-40712380D01*
X130865476Y-40712380D01*
X130960714Y-40664761D01*
X131008333Y-40617142D01*
%TO.C,R4*%
X120374166Y-101037380D02*
X120707500Y-100561190D01*
X120945595Y-101037380D02*
X120945595Y-100037380D01*
X120564642Y-100037380D01*
X120469404Y-100085000D01*
X120421785Y-100132619D01*
X120374166Y-100227857D01*
X120374166Y-100370714D01*
X120421785Y-100465952D01*
X120469404Y-100513571D01*
X120564642Y-100561190D01*
X120945595Y-100561190D01*
X119517023Y-100370714D02*
X119517023Y-101037380D01*
X119755119Y-99989761D02*
X119993214Y-100704047D01*
X119374166Y-100704047D01*
%TO.C,R5*%
X136691666Y-101037380D02*
X137025000Y-100561190D01*
X137263095Y-101037380D02*
X137263095Y-100037380D01*
X136882142Y-100037380D01*
X136786904Y-100085000D01*
X136739285Y-100132619D01*
X136691666Y-100227857D01*
X136691666Y-100370714D01*
X136739285Y-100465952D01*
X136786904Y-100513571D01*
X136882142Y-100561190D01*
X137263095Y-100561190D01*
X135786904Y-100037380D02*
X136263095Y-100037380D01*
X136310714Y-100513571D01*
X136263095Y-100465952D01*
X136167857Y-100418333D01*
X135929761Y-100418333D01*
X135834523Y-100465952D01*
X135786904Y-100513571D01*
X135739285Y-100608809D01*
X135739285Y-100846904D01*
X135786904Y-100942142D01*
X135834523Y-100989761D01*
X135929761Y-101037380D01*
X136167857Y-101037380D01*
X136263095Y-100989761D01*
X136310714Y-100942142D01*
%TO.C,R6*%
X153201666Y-101037380D02*
X153535000Y-100561190D01*
X153773095Y-101037380D02*
X153773095Y-100037380D01*
X153392142Y-100037380D01*
X153296904Y-100085000D01*
X153249285Y-100132619D01*
X153201666Y-100227857D01*
X153201666Y-100370714D01*
X153249285Y-100465952D01*
X153296904Y-100513571D01*
X153392142Y-100561190D01*
X153773095Y-100561190D01*
X152344523Y-100037380D02*
X152535000Y-100037380D01*
X152630238Y-100085000D01*
X152677857Y-100132619D01*
X152773095Y-100275476D01*
X152820714Y-100465952D01*
X152820714Y-100846904D01*
X152773095Y-100942142D01*
X152725476Y-100989761D01*
X152630238Y-101037380D01*
X152439761Y-101037380D01*
X152344523Y-100989761D01*
X152296904Y-100942142D01*
X152249285Y-100846904D01*
X152249285Y-100608809D01*
X152296904Y-100513571D01*
X152344523Y-100465952D01*
X152439761Y-100418333D01*
X152630238Y-100418333D01*
X152725476Y-100465952D01*
X152773095Y-100513571D01*
X152820714Y-100608809D01*
%TO.C,R7*%
X169711666Y-101037380D02*
X170045000Y-100561190D01*
X170283095Y-101037380D02*
X170283095Y-100037380D01*
X169902142Y-100037380D01*
X169806904Y-100085000D01*
X169759285Y-100132619D01*
X169711666Y-100227857D01*
X169711666Y-100370714D01*
X169759285Y-100465952D01*
X169806904Y-100513571D01*
X169902142Y-100561190D01*
X170283095Y-100561190D01*
X169378333Y-100037380D02*
X168711666Y-100037380D01*
X169140238Y-101037380D01*
%TO.C,R8*%
X148027380Y-71318333D02*
X147551190Y-70985000D01*
X148027380Y-70746904D02*
X147027380Y-70746904D01*
X147027380Y-71127857D01*
X147075000Y-71223095D01*
X147122619Y-71270714D01*
X147217857Y-71318333D01*
X147360714Y-71318333D01*
X147455952Y-71270714D01*
X147503571Y-71223095D01*
X147551190Y-71127857D01*
X147551190Y-70746904D01*
X147455952Y-71889761D02*
X147408333Y-71794523D01*
X147360714Y-71746904D01*
X147265476Y-71699285D01*
X147217857Y-71699285D01*
X147122619Y-71746904D01*
X147075000Y-71794523D01*
X147027380Y-71889761D01*
X147027380Y-72080238D01*
X147075000Y-72175476D01*
X147122619Y-72223095D01*
X147217857Y-72270714D01*
X147265476Y-72270714D01*
X147360714Y-72223095D01*
X147408333Y-72175476D01*
X147455952Y-72080238D01*
X147455952Y-71889761D01*
X147503571Y-71794523D01*
X147551190Y-71746904D01*
X147646428Y-71699285D01*
X147836904Y-71699285D01*
X147932142Y-71746904D01*
X147979761Y-71794523D01*
X148027380Y-71889761D01*
X148027380Y-72080238D01*
X147979761Y-72175476D01*
X147932142Y-72223095D01*
X147836904Y-72270714D01*
X147646428Y-72270714D01*
X147551190Y-72223095D01*
X147503571Y-72175476D01*
X147455952Y-72080238D01*
%TO.C,R10*%
X167647857Y-59252380D02*
X167981190Y-58776190D01*
X168219285Y-59252380D02*
X168219285Y-58252380D01*
X167838333Y-58252380D01*
X167743095Y-58300000D01*
X167695476Y-58347619D01*
X167647857Y-58442857D01*
X167647857Y-58585714D01*
X167695476Y-58680952D01*
X167743095Y-58728571D01*
X167838333Y-58776190D01*
X168219285Y-58776190D01*
X166695476Y-59252380D02*
X167266904Y-59252380D01*
X166981190Y-59252380D02*
X166981190Y-58252380D01*
X167076428Y-58395238D01*
X167171666Y-58490476D01*
X167266904Y-58538095D01*
X166076428Y-58252380D02*
X165981190Y-58252380D01*
X165885952Y-58300000D01*
X165838333Y-58347619D01*
X165790714Y-58442857D01*
X165743095Y-58633333D01*
X165743095Y-58871428D01*
X165790714Y-59061904D01*
X165838333Y-59157142D01*
X165885952Y-59204761D01*
X165981190Y-59252380D01*
X166076428Y-59252380D01*
X166171666Y-59204761D01*
X166219285Y-59157142D01*
X166266904Y-59061904D01*
X166314523Y-58871428D01*
X166314523Y-58633333D01*
X166266904Y-58442857D01*
X166219285Y-58347619D01*
X166171666Y-58300000D01*
X166076428Y-58252380D01*
%TO.C,R11*%
X184427857Y-54172380D02*
X184761190Y-53696190D01*
X184999285Y-54172380D02*
X184999285Y-53172380D01*
X184618333Y-53172380D01*
X184523095Y-53220000D01*
X184475476Y-53267619D01*
X184427857Y-53362857D01*
X184427857Y-53505714D01*
X184475476Y-53600952D01*
X184523095Y-53648571D01*
X184618333Y-53696190D01*
X184999285Y-53696190D01*
X183475476Y-54172380D02*
X184046904Y-54172380D01*
X183761190Y-54172380D02*
X183761190Y-53172380D01*
X183856428Y-53315238D01*
X183951666Y-53410476D01*
X184046904Y-53458095D01*
X182523095Y-54172380D02*
X183094523Y-54172380D01*
X182808809Y-54172380D02*
X182808809Y-53172380D01*
X182904047Y-53315238D01*
X182999285Y-53410476D01*
X183094523Y-53458095D01*
%TO.C,R12*%
X141612857Y-39822380D02*
X141946190Y-39346190D01*
X142184285Y-39822380D02*
X142184285Y-38822380D01*
X141803333Y-38822380D01*
X141708095Y-38870000D01*
X141660476Y-38917619D01*
X141612857Y-39012857D01*
X141612857Y-39155714D01*
X141660476Y-39250952D01*
X141708095Y-39298571D01*
X141803333Y-39346190D01*
X142184285Y-39346190D01*
X140660476Y-39822380D02*
X141231904Y-39822380D01*
X140946190Y-39822380D02*
X140946190Y-38822380D01*
X141041428Y-38965238D01*
X141136666Y-39060476D01*
X141231904Y-39108095D01*
X140279523Y-38917619D02*
X140231904Y-38870000D01*
X140136666Y-38822380D01*
X139898571Y-38822380D01*
X139803333Y-38870000D01*
X139755714Y-38917619D01*
X139708095Y-39012857D01*
X139708095Y-39108095D01*
X139755714Y-39250952D01*
X140327142Y-39822380D01*
X139708095Y-39822380D01*
%TO.C,R13*%
X136802857Y-39822380D02*
X137136190Y-39346190D01*
X137374285Y-39822380D02*
X137374285Y-38822380D01*
X136993333Y-38822380D01*
X136898095Y-38870000D01*
X136850476Y-38917619D01*
X136802857Y-39012857D01*
X136802857Y-39155714D01*
X136850476Y-39250952D01*
X136898095Y-39298571D01*
X136993333Y-39346190D01*
X137374285Y-39346190D01*
X135850476Y-39822380D02*
X136421904Y-39822380D01*
X136136190Y-39822380D02*
X136136190Y-38822380D01*
X136231428Y-38965238D01*
X136326666Y-39060476D01*
X136421904Y-39108095D01*
X135517142Y-38822380D02*
X134898095Y-38822380D01*
X135231428Y-39203333D01*
X135088571Y-39203333D01*
X134993333Y-39250952D01*
X134945714Y-39298571D01*
X134898095Y-39393809D01*
X134898095Y-39631904D01*
X134945714Y-39727142D01*
X134993333Y-39774761D01*
X135088571Y-39822380D01*
X135374285Y-39822380D01*
X135469523Y-39774761D01*
X135517142Y-39727142D01*
%TO.C,R14*%
X167377857Y-47822380D02*
X167711190Y-47346190D01*
X167949285Y-47822380D02*
X167949285Y-46822380D01*
X167568333Y-46822380D01*
X167473095Y-46870000D01*
X167425476Y-46917619D01*
X167377857Y-47012857D01*
X167377857Y-47155714D01*
X167425476Y-47250952D01*
X167473095Y-47298571D01*
X167568333Y-47346190D01*
X167949285Y-47346190D01*
X166425476Y-47822380D02*
X166996904Y-47822380D01*
X166711190Y-47822380D02*
X166711190Y-46822380D01*
X166806428Y-46965238D01*
X166901666Y-47060476D01*
X166996904Y-47108095D01*
X165568333Y-47155714D02*
X165568333Y-47822380D01*
X165806428Y-46774761D02*
X166044523Y-47489047D01*
X165425476Y-47489047D01*
%TO.C,R15*%
X184157857Y-42742380D02*
X184491190Y-42266190D01*
X184729285Y-42742380D02*
X184729285Y-41742380D01*
X184348333Y-41742380D01*
X184253095Y-41790000D01*
X184205476Y-41837619D01*
X184157857Y-41932857D01*
X184157857Y-42075714D01*
X184205476Y-42170952D01*
X184253095Y-42218571D01*
X184348333Y-42266190D01*
X184729285Y-42266190D01*
X183205476Y-42742380D02*
X183776904Y-42742380D01*
X183491190Y-42742380D02*
X183491190Y-41742380D01*
X183586428Y-41885238D01*
X183681666Y-41980476D01*
X183776904Y-42028095D01*
X182300714Y-41742380D02*
X182776904Y-41742380D01*
X182824523Y-42218571D01*
X182776904Y-42170952D01*
X182681666Y-42123333D01*
X182443571Y-42123333D01*
X182348333Y-42170952D01*
X182300714Y-42218571D01*
X182253095Y-42313809D01*
X182253095Y-42551904D01*
X182300714Y-42647142D01*
X182348333Y-42694761D01*
X182443571Y-42742380D01*
X182681666Y-42742380D01*
X182776904Y-42694761D01*
X182824523Y-42647142D01*
%TO.C,R16*%
X179712857Y-42742380D02*
X180046190Y-42266190D01*
X180284285Y-42742380D02*
X180284285Y-41742380D01*
X179903333Y-41742380D01*
X179808095Y-41790000D01*
X179760476Y-41837619D01*
X179712857Y-41932857D01*
X179712857Y-42075714D01*
X179760476Y-42170952D01*
X179808095Y-42218571D01*
X179903333Y-42266190D01*
X180284285Y-42266190D01*
X178760476Y-42742380D02*
X179331904Y-42742380D01*
X179046190Y-42742380D02*
X179046190Y-41742380D01*
X179141428Y-41885238D01*
X179236666Y-41980476D01*
X179331904Y-42028095D01*
X177903333Y-41742380D02*
X178093809Y-41742380D01*
X178189047Y-41790000D01*
X178236666Y-41837619D01*
X178331904Y-41980476D01*
X178379523Y-42170952D01*
X178379523Y-42551904D01*
X178331904Y-42647142D01*
X178284285Y-42694761D01*
X178189047Y-42742380D01*
X177998571Y-42742380D01*
X177903333Y-42694761D01*
X177855714Y-42647142D01*
X177808095Y-42551904D01*
X177808095Y-42313809D01*
X177855714Y-42218571D01*
X177903333Y-42170952D01*
X177998571Y-42123333D01*
X178189047Y-42123333D01*
X178284285Y-42170952D01*
X178331904Y-42218571D01*
X178379523Y-42313809D01*
%TO.C,R17*%
X167377857Y-36392380D02*
X167711190Y-35916190D01*
X167949285Y-36392380D02*
X167949285Y-35392380D01*
X167568333Y-35392380D01*
X167473095Y-35440000D01*
X167425476Y-35487619D01*
X167377857Y-35582857D01*
X167377857Y-35725714D01*
X167425476Y-35820952D01*
X167473095Y-35868571D01*
X167568333Y-35916190D01*
X167949285Y-35916190D01*
X166425476Y-36392380D02*
X166996904Y-36392380D01*
X166711190Y-36392380D02*
X166711190Y-35392380D01*
X166806428Y-35535238D01*
X166901666Y-35630476D01*
X166996904Y-35678095D01*
X166092142Y-35392380D02*
X165425476Y-35392380D01*
X165854047Y-36392380D01*
%TO.C,R18*%
X184157857Y-31312380D02*
X184491190Y-30836190D01*
X184729285Y-31312380D02*
X184729285Y-30312380D01*
X184348333Y-30312380D01*
X184253095Y-30360000D01*
X184205476Y-30407619D01*
X184157857Y-30502857D01*
X184157857Y-30645714D01*
X184205476Y-30740952D01*
X184253095Y-30788571D01*
X184348333Y-30836190D01*
X184729285Y-30836190D01*
X183205476Y-31312380D02*
X183776904Y-31312380D01*
X183491190Y-31312380D02*
X183491190Y-30312380D01*
X183586428Y-30455238D01*
X183681666Y-30550476D01*
X183776904Y-30598095D01*
X182634047Y-30740952D02*
X182729285Y-30693333D01*
X182776904Y-30645714D01*
X182824523Y-30550476D01*
X182824523Y-30502857D01*
X182776904Y-30407619D01*
X182729285Y-30360000D01*
X182634047Y-30312380D01*
X182443571Y-30312380D01*
X182348333Y-30360000D01*
X182300714Y-30407619D01*
X182253095Y-30502857D01*
X182253095Y-30550476D01*
X182300714Y-30645714D01*
X182348333Y-30693333D01*
X182443571Y-30740952D01*
X182634047Y-30740952D01*
X182729285Y-30788571D01*
X182776904Y-30836190D01*
X182824523Y-30931428D01*
X182824523Y-31121904D01*
X182776904Y-31217142D01*
X182729285Y-31264761D01*
X182634047Y-31312380D01*
X182443571Y-31312380D01*
X182348333Y-31264761D01*
X182300714Y-31217142D01*
X182253095Y-31121904D01*
X182253095Y-30931428D01*
X182300714Y-30836190D01*
X182348333Y-30788571D01*
X182443571Y-30740952D01*
%TO.C,R19*%
X179712857Y-31312380D02*
X180046190Y-30836190D01*
X180284285Y-31312380D02*
X180284285Y-30312380D01*
X179903333Y-30312380D01*
X179808095Y-30360000D01*
X179760476Y-30407619D01*
X179712857Y-30502857D01*
X179712857Y-30645714D01*
X179760476Y-30740952D01*
X179808095Y-30788571D01*
X179903333Y-30836190D01*
X180284285Y-30836190D01*
X178760476Y-31312380D02*
X179331904Y-31312380D01*
X179046190Y-31312380D02*
X179046190Y-30312380D01*
X179141428Y-30455238D01*
X179236666Y-30550476D01*
X179331904Y-30598095D01*
X178284285Y-31312380D02*
X178093809Y-31312380D01*
X177998571Y-31264761D01*
X177950952Y-31217142D01*
X177855714Y-31074285D01*
X177808095Y-30883809D01*
X177808095Y-30502857D01*
X177855714Y-30407619D01*
X177903333Y-30360000D01*
X177998571Y-30312380D01*
X178189047Y-30312380D01*
X178284285Y-30360000D01*
X178331904Y-30407619D01*
X178379523Y-30502857D01*
X178379523Y-30740952D01*
X178331904Y-30836190D01*
X178284285Y-30883809D01*
X178189047Y-30931428D01*
X177998571Y-30931428D01*
X177903333Y-30883809D01*
X177855714Y-30836190D01*
X177808095Y-30740952D01*
%TO.C,R9*%
X151962380Y-56348333D02*
X151486190Y-56015000D01*
X151962380Y-55776904D02*
X150962380Y-55776904D01*
X150962380Y-56157857D01*
X151010000Y-56253095D01*
X151057619Y-56300714D01*
X151152857Y-56348333D01*
X151295714Y-56348333D01*
X151390952Y-56300714D01*
X151438571Y-56253095D01*
X151486190Y-56157857D01*
X151486190Y-55776904D01*
X151962380Y-56824523D02*
X151962380Y-57015000D01*
X151914761Y-57110238D01*
X151867142Y-57157857D01*
X151724285Y-57253095D01*
X151533809Y-57300714D01*
X151152857Y-57300714D01*
X151057619Y-57253095D01*
X151010000Y-57205476D01*
X150962380Y-57110238D01*
X150962380Y-56919761D01*
X151010000Y-56824523D01*
X151057619Y-56776904D01*
X151152857Y-56729285D01*
X151390952Y-56729285D01*
X151486190Y-56776904D01*
X151533809Y-56824523D01*
X151581428Y-56919761D01*
X151581428Y-57110238D01*
X151533809Y-57205476D01*
X151486190Y-57253095D01*
X151390952Y-57300714D01*
%TO.C,R20*%
X154502380Y-55872142D02*
X154026190Y-55538809D01*
X154502380Y-55300714D02*
X153502380Y-55300714D01*
X153502380Y-55681666D01*
X153550000Y-55776904D01*
X153597619Y-55824523D01*
X153692857Y-55872142D01*
X153835714Y-55872142D01*
X153930952Y-55824523D01*
X153978571Y-55776904D01*
X154026190Y-55681666D01*
X154026190Y-55300714D01*
X153597619Y-56253095D02*
X153550000Y-56300714D01*
X153502380Y-56395952D01*
X153502380Y-56634047D01*
X153550000Y-56729285D01*
X153597619Y-56776904D01*
X153692857Y-56824523D01*
X153788095Y-56824523D01*
X153930952Y-56776904D01*
X154502380Y-56205476D01*
X154502380Y-56824523D01*
X153502380Y-57443571D02*
X153502380Y-57538809D01*
X153550000Y-57634047D01*
X153597619Y-57681666D01*
X153692857Y-57729285D01*
X153883333Y-57776904D01*
X154121428Y-57776904D01*
X154311904Y-57729285D01*
X154407142Y-57681666D01*
X154454761Y-57634047D01*
X154502380Y-57538809D01*
X154502380Y-57443571D01*
X154454761Y-57348333D01*
X154407142Y-57300714D01*
X154311904Y-57253095D01*
X154121428Y-57205476D01*
X153883333Y-57205476D01*
X153692857Y-57253095D01*
X153597619Y-57300714D01*
X153550000Y-57348333D01*
X153502380Y-57443571D01*
%TO.C,R21*%
X157042380Y-55872142D02*
X156566190Y-55538809D01*
X157042380Y-55300714D02*
X156042380Y-55300714D01*
X156042380Y-55681666D01*
X156090000Y-55776904D01*
X156137619Y-55824523D01*
X156232857Y-55872142D01*
X156375714Y-55872142D01*
X156470952Y-55824523D01*
X156518571Y-55776904D01*
X156566190Y-55681666D01*
X156566190Y-55300714D01*
X156137619Y-56253095D02*
X156090000Y-56300714D01*
X156042380Y-56395952D01*
X156042380Y-56634047D01*
X156090000Y-56729285D01*
X156137619Y-56776904D01*
X156232857Y-56824523D01*
X156328095Y-56824523D01*
X156470952Y-56776904D01*
X157042380Y-56205476D01*
X157042380Y-56824523D01*
X157042380Y-57776904D02*
X157042380Y-57205476D01*
X157042380Y-57491190D02*
X156042380Y-57491190D01*
X156185238Y-57395952D01*
X156280476Y-57300714D01*
X156328095Y-57205476D01*
%TD*%
M02*
