%TF.GenerationSoftware,KiCad,Pcbnew,(5.1.12)-1*%
%TF.CreationDate,2022-08-13T13:45:03+02:00*%
%TF.ProjectId,petpuller,70657470-756c-46c6-9572-2e6b69636164,rev?*%
%TF.SameCoordinates,Original*%
%TF.FileFunction,Soldermask,Top*%
%TF.FilePolarity,Negative*%
%FSLAX46Y46*%
G04 Gerber Fmt 4.6, Leading zero omitted, Abs format (unit mm)*
G04 Created by KiCad (PCBNEW (5.1.12)-1) date 2022-08-13 13:45:03*
%MOMM*%
%LPD*%
G01*
G04 APERTURE LIST*
%ADD10C,3.200000*%
%ADD11R,1.600000X1.600000*%
%ADD12O,1.600000X1.600000*%
%ADD13C,1.600000*%
%ADD14R,1.800000X2.600000*%
%ADD15O,1.800000X2.600000*%
%ADD16C,3.000000*%
%ADD17R,1.700000X1.700000*%
%ADD18O,1.700000X1.700000*%
%ADD19C,2.340000*%
%ADD20R,1.530000X1.530000*%
%ADD21C,1.530000*%
%ADD22R,1.905000X2.000000*%
%ADD23O,1.905000X2.000000*%
%ADD24R,3.000000X3.000000*%
%ADD25O,3.048000X1.850000*%
%ADD26O,1.500000X1.050000*%
%ADD27R,1.500000X1.050000*%
G04 APERTURE END LIST*
D10*
%TO.C,REF\u002A\u002A*%
X100330000Y-20320000D03*
%TD*%
%TO.C,REF\u002A\u002A*%
X191135000Y-20320000D03*
%TD*%
%TO.C,REF\u002A\u002A*%
X100330000Y-111125000D03*
%TD*%
%TO.C,REF\u002A\u002A*%
X191135000Y-111125000D03*
%TD*%
D11*
%TO.C,A1*%
X121920000Y-59690000D03*
D12*
X154940000Y-44450000D03*
X124460000Y-59690000D03*
X152400000Y-44450000D03*
X127000000Y-59690000D03*
X149860000Y-44450000D03*
X129540000Y-59690000D03*
X147320000Y-44450000D03*
X132080000Y-59690000D03*
X144780000Y-44450000D03*
X134620000Y-59690000D03*
X142240000Y-44450000D03*
X137160000Y-59690000D03*
X139700000Y-44450000D03*
X139700000Y-59690000D03*
X137160000Y-44450000D03*
X142240000Y-59690000D03*
X134620000Y-44450000D03*
X144780000Y-59690000D03*
X132080000Y-44450000D03*
X147320000Y-59690000D03*
X129540000Y-44450000D03*
X149860000Y-59690000D03*
X127000000Y-44450000D03*
X152400000Y-59690000D03*
X124460000Y-44450000D03*
X154940000Y-59690000D03*
X121920000Y-44450000D03*
X157480000Y-59690000D03*
X157480000Y-44450000D03*
%TD*%
D11*
%TO.C,C1*%
X111125000Y-41910000D03*
D13*
X111125000Y-44410000D03*
%TD*%
D14*
%TO.C,DS1*%
X113665000Y-67310000D03*
D15*
X116205000Y-67310000D03*
X118745000Y-67310000D03*
X121285000Y-67310000D03*
X123825000Y-67310000D03*
X126365000Y-67310000D03*
X128905000Y-67310000D03*
X131445000Y-67310000D03*
X133985000Y-67310000D03*
X136525000Y-67310000D03*
X139065000Y-67310000D03*
X141605000Y-67310000D03*
X144145000Y-67310000D03*
X146685000Y-67310000D03*
X149225000Y-67310000D03*
X151765000Y-67310000D03*
D16*
X108165900Y-67310000D03*
X108165900Y-98310700D03*
X183164480Y-98310700D03*
X183165000Y-67310000D03*
%TD*%
D17*
%TO.C,J2*%
X147955000Y-18415000D03*
D18*
X145415000Y-18415000D03*
X142875000Y-18415000D03*
X140335000Y-18415000D03*
%TD*%
D17*
%TO.C,J3*%
X102870000Y-41910000D03*
D18*
X102870000Y-44450000D03*
%TD*%
D19*
%TO.C,RV1*%
X99695000Y-88740000D03*
X102195000Y-83740000D03*
X99695000Y-78740000D03*
%TD*%
D20*
%TO.C,U1*%
X135255000Y-36195000D03*
D21*
X137795000Y-36195000D03*
X140335000Y-36195000D03*
X142875000Y-36195000D03*
X145415000Y-36195000D03*
X147955000Y-36195000D03*
X150495000Y-36195000D03*
X153035000Y-36195000D03*
X153035000Y-23495000D03*
X150495000Y-23495000D03*
X147955000Y-23495000D03*
X145415000Y-23495000D03*
X142875000Y-23495000D03*
X140335000Y-23495000D03*
X137795000Y-23495000D03*
X135255000Y-23495000D03*
%TD*%
D22*
%TO.C,Q1*%
X175895000Y-58420000D03*
D23*
X178435000Y-58420000D03*
X180975000Y-58420000D03*
%TD*%
D24*
%TO.C,J4*%
X120015000Y-22860000D03*
D16*
X114935000Y-22860000D03*
X109855000Y-22860000D03*
%TD*%
D25*
%TO.C,SW2*%
X105610000Y-110490000D03*
X105610000Y-105490000D03*
X118110000Y-110490000D03*
X118110000Y-105490000D03*
%TD*%
%TO.C,SW3*%
X151130000Y-105490000D03*
X151130000Y-110490000D03*
X138630000Y-105490000D03*
X138630000Y-110490000D03*
%TD*%
%TO.C,SW4*%
X155140000Y-110490000D03*
X155140000Y-105490000D03*
X167640000Y-110490000D03*
X167640000Y-105490000D03*
%TD*%
%TO.C,SW5*%
X134620000Y-105490000D03*
X134620000Y-110490000D03*
X122120000Y-105490000D03*
X122120000Y-110490000D03*
%TD*%
%TO.C,SW6*%
X171650000Y-110490000D03*
X171650000Y-105490000D03*
X184150000Y-110490000D03*
X184150000Y-105490000D03*
%TD*%
D24*
%TO.C,J1*%
X187960000Y-52070000D03*
D16*
X187960000Y-57150000D03*
%TD*%
D26*
%TO.C,Q2*%
X170180000Y-57150000D03*
X170180000Y-55880000D03*
D27*
X170180000Y-58420000D03*
%TD*%
D11*
%TO.C,SW1*%
X122555000Y-37465000D03*
D12*
X127635000Y-29845000D03*
X125095000Y-37465000D03*
X125095000Y-29845000D03*
X127635000Y-37465000D03*
X122555000Y-29845000D03*
%TD*%
D17*
%TO.C,J5*%
X102870000Y-73660000D03*
D18*
X102870000Y-71120000D03*
X102870000Y-68580000D03*
X102870000Y-66040000D03*
%TD*%
D17*
%TO.C,J6*%
X105410000Y-59690000D03*
D18*
X102870000Y-59690000D03*
X105410000Y-57150000D03*
X102870000Y-57150000D03*
X105410000Y-54610000D03*
X102870000Y-54610000D03*
X105410000Y-52070000D03*
X102870000Y-52070000D03*
X105410000Y-49530000D03*
X102870000Y-49530000D03*
%TD*%
D16*
%TO.C,J7*%
X187960000Y-45720000D03*
D24*
X187960000Y-40640000D03*
%TD*%
%TO.C,J8*%
X187960000Y-29210000D03*
D16*
X187960000Y-34290000D03*
%TD*%
D27*
%TO.C,Q3*%
X170180000Y-46990000D03*
D26*
X170180000Y-44450000D03*
X170180000Y-45720000D03*
%TD*%
D23*
%TO.C,Q4*%
X180975000Y-46990000D03*
X178435000Y-46990000D03*
D22*
X175895000Y-46990000D03*
%TD*%
D26*
%TO.C,Q5*%
X170180000Y-34290000D03*
X170180000Y-33020000D03*
D27*
X170180000Y-35560000D03*
%TD*%
D22*
%TO.C,Q6*%
X175895000Y-35560000D03*
D23*
X178435000Y-35560000D03*
X180975000Y-35560000D03*
%TD*%
D11*
%TO.C,C2*%
X162560000Y-25400000D03*
D13*
X162560000Y-22900000D03*
%TD*%
%TO.C,C3*%
X105370000Y-34290000D03*
D11*
X102870000Y-34290000D03*
%TD*%
M02*
